<svg width="48" height="48" viewBox="0 0 48 48" fill="none" xmlns="http://www.w3.org/2000/svg">
<path d="M29.0003 27.3337C24.5503 27.3337 15.667 29.5503 15.667 34.0003V37.3337H42.3337V34.0003C42.3337 29.5503 33.4503 27.3337 29.0003 27.3337ZM14.0003 20.667V15.667H10.667V20.667H5.66699V24.0003H10.667V29.0003H14.0003L14.0003 24.0003H19.0003V20.667H14.0003ZM29.0003 24.0003C30.7684 24.0003 32.4641 23.2979 33.7144 22.0477C34.9646 20.7975 35.667 19.1018 35.667 17.3337C35.667 15.5655 34.9646 13.8699 33.7144 12.6196C32.4641 11.3694 30.7684 10.667 29.0003 10.667C27.2322 10.667 25.5365 11.3694 24.2863 12.6196C23.036 13.8699 22.3337 15.5655 22.3337 17.3337C22.3337 19.1018 23.036 20.7975 24.2863 22.0477C25.5365 23.2979 27.2322 24.0003 29.0003 24.0003Z" fill="#273B69"/>
</svg>
