<svg width="48" height="48" viewBox="0 0 48 48" fill="none" xmlns="http://www.w3.org/2000/svg">
<path d="M38.2802 25.8798C38.3602 25.2798 38.4002 24.6598 38.4002 23.9998C38.4002 23.3598 38.3602 22.7198 38.2602 22.1198L42.3202 18.9598C42.6802 18.6798 42.7802 18.1398 42.5602 17.7398L38.7202 11.0998C38.4802 10.6598 37.9802 10.5198 37.5402 10.6598L32.7602 12.5798C31.7602 11.8198 30.7002 11.1798 29.5202 10.6998L28.8002 5.6198C28.7202 5.1398 28.3202 4.7998 27.8402 4.7998H20.1602C19.6802 4.7998 19.3002 5.1398 19.2202 5.6198L18.5002 10.6998C17.3202 11.1798 16.2402 11.8398 15.2602 12.5798L10.4802 10.6598C10.0402 10.4998 9.54022 10.6598 9.30022 11.0998L5.48022 17.7398C5.24022 18.1598 5.32022 18.6798 5.72022 18.9598L9.78022 22.1198C9.68022 22.7198 9.60022 23.3798 9.60022 23.9998C9.60022 24.6198 9.64022 25.2798 9.74022 25.8798L5.68022 29.0398C5.32022 29.3198 5.22022 29.8598 5.44022 30.2598L9.28022 36.8998C9.52022 37.3398 10.0202 37.4798 10.4602 37.3398L15.2402 35.4198C16.2402 36.1798 17.3002 36.8198 18.4802 37.2998L19.2002 42.3798C19.3002 42.8598 19.6802 43.1998 20.1602 43.1998H27.8402C28.3202 43.1998 28.7202 42.8598 28.7802 42.3798L29.5002 37.2998C30.6802 36.8198 31.7602 36.1798 32.7402 35.4198L37.5202 37.3398C37.9602 37.4998 38.4602 37.3398 38.7002 36.8998L42.5402 30.2598C42.7802 29.8198 42.6802 29.3198 42.3002 29.0398L38.2802 25.8798ZM24.0002 31.1998C20.0402 31.1998 16.8002 27.9598 16.8002 23.9998C16.8002 20.0398 20.0402 16.7998 24.0002 16.7998C27.9602 16.7998 31.2002 20.0398 31.2002 23.9998C31.2002 27.9598 27.9602 31.1998 24.0002 31.1998Z" fill="#FEFEFE"/>
</svg>
