<svg width="48" height="48" viewBox="0 0 48 48" fill="none" xmlns="http://www.w3.org/2000/svg">
<path d="M35.7205 36.0002L37.8005 38.0002C35.0005 40.4002 29.8805 42.0002 24.0005 42.0002C15.1805 42.0002 8.00049 38.4202 8.00049 34.0002L8.00049 14.0002C8.00049 9.58024 15.1605 6.00024 24.0005 6.00024C29.9005 6.00024 35.0005 7.60024 37.8005 10.0002L35.7205 12.0002L35.0005 12.8002C33.3005 11.5402 29.5605 10.0002 24.0005 10.0002C16.2605 10.0002 12.0005 13.0002 12.0005 14.0002C12.0005 15.0002 16.2605 18.0002 24.0005 18.0002C26.7405 18.0002 29.0005 17.6202 30.8405 17.0802L32.7605 19.0002H27.0005V21.8402C26.0005 21.9402 25.0005 22.0002 24.0005 22.0002C19.2205 22.0002 14.9405 20.9402 12.0005 19.2802V24.9002C14.6005 26.8002 19.1605 28.0002 24.0005 28.0002C25.0005 28.0002 26.0005 27.9402 27.0005 27.8402V29.0002H32.7605L30.7605 31.0002L31.0005 31.2202C28.8205 31.7202 26.4805 32.0002 24.0005 32.0002C19.4405 32.0002 15.2205 31.1002 12.0005 29.5402V34.0002C12.0005 35.0002 16.2605 38.0002 24.0005 38.0002C29.5605 38.0002 33.3005 36.4602 35.0005 35.2202L35.7205 36.0002ZM37.8405 14.1602L35.0005 17.0002L40.0005 22.0002H30.0005V26.0002H40.0005L35.0005 31.0002L37.8405 33.8402L47.6805 24.0002L37.8405 14.1602Z" fill="#273B69"/>
</svg>
