<svg width="48" height="48" viewBox="0 0 48 48" fill="none" xmlns="http://www.w3.org/2000/svg">
<g clip-path="url(#clip0_12_785)">
<path d="M17.6805 24.0002L7.84049 33.8402L5.00049 31.0002L10.0005 26.0002H0.000488281L0.000488281 22.0002H10.0005L5.00049 17.0002L7.84049 14.1602L17.6805 24.0002ZM24.0005 6.00024C17.1805 6.00024 11.3605 8.14024 9.06049 11.1402L10.0005 12.0002L12.0605 14.1402C12.0005 14.1002 12.0005 14.0002 12.0005 14.0002C12.0005 13.0002 16.2605 10.0002 24.0005 10.0002C31.7405 10.0002 36.0005 13.0002 36.0005 14.0002C36.0005 15.0002 31.7405 18.0002 24.0005 18.0002C18.7605 18.0002 15.1605 16.6202 13.3605 15.4402L19.6005 21.6802C21.0005 21.8802 22.4805 22.0002 24.0005 22.0002C28.7805 22.0002 33.0605 20.9402 36.0005 19.2802V24.9002C33.4005 26.8002 28.8405 28.0002 24.0005 28.0002C22.0805 28.0002 20.2005 27.8002 18.4805 27.4602L15.1805 30.7402C17.8205 31.5402 20.8205 32.0002 24.0005 32.0002C28.5605 32.0002 32.7805 31.1002 36.0005 29.5402V34.0002C36.0005 35.0002 31.7405 38.0002 24.0005 38.0002C16.2605 38.0002 12.0005 35.0002 12.0005 34.0002V33.9202L10.0005 36.0002L9.08049 36.8602C11.3805 39.8602 17.2005 42.0002 24.0005 42.0002C32.8205 42.0002 40.0005 38.4202 40.0005 34.0002V14.0002C40.0005 9.58024 32.8405 6.00024 24.0005 6.00024Z" fill="#273B69"/>
</g>
<defs>
<clipPath id="clip0_12_785">
<rect width="48" height="48" fill="white" transform="translate(0.000488281 0.000244141)"/>
</clipPath>
</defs>
</svg>
