<svg width="36" height="36" viewBox="0 0 36 36" fill="none" xmlns="http://www.w3.org/2000/svg">
<circle cx="18" cy="18" r="18" fill="#FEFEFE"/>
<path d="M11 14C12.0609 14 13.0783 14.4214 13.8284 15.1716C14.5786 15.9217 15 16.9391 15 18C15 19.0609 14.5786 20.0783 13.8284 20.8284C13.0783 21.5786 12.0609 22 11 22C9.93913 22 8.92172 21.5786 8.17157 20.8284C7.42143 20.0783 7 19.0609 7 18C7 16.9391 7.42143 15.9217 8.17157 15.1716C8.92172 14.4214 9.93913 14 11 14V14ZM18 7C19.0609 7 20.0783 7.42143 20.8284 8.17157C21.5786 8.92172 22 9.93913 22 11C22 12.0609 21.5786 13.0783 20.8284 13.8284C20.0783 14.5786 19.0609 15 18 15C16.9391 15 15.9217 14.5786 15.1716 13.8284C14.4214 13.0783 14 12.0609 14 11C14 9.93913 14.4214 8.92172 15.1716 8.17157C15.9217 7.42143 16.9391 7 18 7V7ZM18 21C19.0609 21 20.0783 21.4214 20.8284 22.1716C21.5786 22.9217 22 23.9391 22 25C22 26.0609 21.5786 27.0783 20.8284 27.8284C20.0783 28.5786 19.0609 29 18 29C16.9391 29 15.9217 28.5786 15.1716 27.8284C14.4214 27.0783 14 26.0609 14 25C14 23.9391 14.4214 22.9217 15.1716 22.1716C15.9217 21.4214 16.9391 21 18 21V21ZM25 14C26.0609 14 27.0783 14.4214 27.8284 15.1716C28.5786 15.9217 29 16.9391 29 18C29 19.0609 28.5786 20.0783 27.8284 20.8284C27.0783 21.5786 26.0609 22 25 22C23.9391 22 22.9217 21.5786 22.1716 20.8284C21.4214 20.0783 21 19.0609 21 18C21 16.9391 21.4214 15.9217 22.1716 15.1716C22.9217 14.4214 23.9391 14 25 14Z" fill="#283B69"/>
</svg>
